Ajankohtainen kakkonen - A2 Teema: Homoilta
YLE TV2 tiistai 12.10.2010 klo 21.00-21:50 ja 22:05-23.15

Mies- ja naispareille oikeus avioliittoon ja lasten adoptointiin? Kirkkohäät
myös homopareille? Suoran keskustelun juontavat Salla Paajanen ja Jyrki Richt.

Studiossa keskustelemassa:
- Mr. Gay Finland Kenneth Liukkonen
- Tampereen piispa Matti Repo
- sarjakuvataiteilija Pertti Jarla
- lesbopareja siunannut pastori Leena Huovinen
- näyttelijä Elsa Saisio
- raamatunopettaja Pasi Turunen
- kuuluttaja, Seta:n hallituksen jäsen Manne Maalismaa
- ohjaaja Mikko Roiha
- Tosimies -lehden päätoimittaja Kimmo Janas
- kirkkovaltuutettu Sonja Falk
- Sateenkaariperheet ry:n puheenjohtaja Juha Jämsä
- opiskelija Maija Paloheimo
- kansanedustaja Päivi Räsänen (kd.)
- kansanedustaja Oras Tynkkynen (vihr.)
- kansanedustaja Pentti Oinonen (ps.)
- kansanedustaja Lenita Toivakka (kok.)
- seksologi Tarja Sandberg
- sateenkaariperheen äiti Heidi Kontkanen


Summary in English

(http://en.wikipedia.org/wiki/LGBT_rights_in_Finland#Homoilta_and_resignations_from_the_Evangelical_Lutheran_Church)

'On October 12, 2010, on TV2 (YLE), the current affairs program Ajankohtainen kakkonen
had a special panel discussion episode, A2 Teema, with the title Homoilta  (literally
"Gay Night", loosely "On Gay People").'

'The following day, over 2000 people left the Church online, through eroakirkosta.fi
("leavethechurch.fi"), while the average has been at 130. By late Sunday night,
October 17, over 18,000 people had left the church through the website since October 12.'

News in english: 
http://www.yle.fi/uutiset/news/2010/10/hundreds_quit_church_following_news_programme_on_homosexuality_2055243.html 
http://www.yle.fi/uutiset/news/2010/10/church_resignations_now_exceed_18000_2064653.html



Complete name                    : YLE-TV2-Ajankohtainen-Kakkonen-A2-Teema-Homoilta-20101012-part1.mp4
Format                           : MPEG-4
Format profile                   : Base Media
Codec ID                         : isom
File size                        : 644 MiB
Duration                         : 53mn 59s
Overall bit rate                 : 1 667 Kbps

Complete name                    : YLE-TV2-Ajankohtainen-Kakkonen-A2-Teema-Homoilta-20101012-part2.mp4
File size                        : 895 MiB
Duration                         : 1h 14mn


Video (part1 - part2 is technically similar)
Format                           : AVC
Format profile                   : Baseline@L3.0
Format settings, CABAC           : No
Format settings, ReFrames        : 3 frames
Codec ID                         : avc1
Codec ID/Info                    : Advanced Video Coding
Duration                         : 53mn 59s
Bit rate mode                    : Variable
Bit rate                         : 1 511 Kbps
Width                            : 480 pixels
Height                           : 270 pixels
Display aspect ratio             : 16:9
Frame rate mode                  : Constant
Frame rate                       : 25.000 fps
Resolution                       : 8 bits
Colorimetry                      : 4:2:0
Scan type                        : Progressive
Stream size                      : 583 MiB (91%)
Writing library                  : x264 core 67 r1173 f6d3166

Audio (part1 - part2 is technically similar)
Spoken language                  : Finnish
ID                               : 2
Format                           : AAC
Format version                   : Version 4
Format profile                   : LC
Format settings, SBR             : No
Codec ID                         : 40
Bit rate mode                    : Variable
Bit rate                         : 152 Kbps
Channel(s)                       : 2 channels
Sampling rate                    : 44.1 KHz
Stream size                      : 58.7 MiB (9%)